<svg xmlns="http://www.w3.org/2000/svg" width="85" height="24" viewBox="0 0 85 24">
    <g clip-path="url(#a)">
        <path d="M0 23.97V.25h23.6v23.72zM4.86 3.95v17.02l14.79-8.7zm26.68 19.77h-4.07V13.15h4.1c3.03 0 4.86 2.4 4.86 5.46s-1.62 5.11-4.88 5.11zm3.62-12.97-.81-2.35h-3.89l-.71 2.35h-2.12L31.18.15h2.15l4 10.6zm-3.79 4.2H29.7v7.13h1.8c2.38 0 2.73-2.02 2.71-3.57 0-1.21-.58-3.57-2.83-3.57zm2.25-8.67-1.34-3.89-1.19 3.87-.08.66h2.63c0-.35.03-.43-.03-.63zm3.57 17.45V13.15h7.79v1.77h-5.66v2.25h5.01v1.92h-4.98v2.83h5.82v1.8H37.2zm7.33-12.97L39.87 3.6v7.16h-2.12V.15h2.17l4.48 7.06V.15h2.12v10.6h-2zm6.65 12.95h-2.02l-3.49-9.99v-.56h2.12l2.38 7.74 2.33-7.71h2.07v.56zm3.36-12.95-.81-2.35h-3.89l-.71 2.35H47L50.55.15h2.15l4 10.6h-2.17zm-1.52-4.43-1.34-4-1.34 4v.58h2.73c0-.35 0-.4-.05-.58m2.2 17.37V13.18h2.25V23.7zm1.95-12.95V.15h2.1v8.8h4.73v1.8zm5.89 13.23c-5.79.13-6.8-11.05.03-10.98 3.79 0 4.45 3.16 4.6 3.64h-2.1c-.33-.66-1.19-1.92-2.25-2-3.74-.25-3.74 7.66 0 7.66 1.8 0 2.23-1.8 2.33-2h2.05s-.25 3.62-4.65 3.67zm5.82-13.05c-6.81 0-6.56-10.98.07-10.93 6.4.05 6.58 10.93-.08 10.93zm-.08-1.77c3.92.03 3.92-7.31.08-7.36-3.82-.03-3.95 7.33-.08 7.36m-.71 14.57V13.15h7.51v1.92H70.1v2.17h4.86v1.9h-4.83v2.78h5.72v1.8h-7.76zM82.34 10.5V9.49c-.23.2-1.24 1.49-3.14 1.44-6.47-.15-6.5-10.77.3-10.9 1.64 0 3.01 1.04 3.54 1.77.63.83.68 1.54.71 1.72h-1.8c-.4-.66-1.04-1.77-2.53-1.77-3.95-.05-4.2 7.41-.03 7.49 1.85.05 2.78-1.87 2.78-1.9v-.56h-2.53V5.14h4.35v5.36h-1.67zM80.37 24c-4.48 0-4.43-3.44-4.43-3.44h2.02s-.15 1.67 2.1 1.82c.56.03 2.38-.2 2.38-1.47 0-1.47-1.85-1.39-3.01-1.72-1.16-.3-3.36-.81-3.36-2.86 0-1.8 1.47-3.34 4.3-3.34 3.79.03 3.77 2.96 3.79 3.14h-1.95c-.13-.43-.25-1.47-1.95-1.52-.83 0-2.1.28-2.1 1.26 0 1.24 1.42 1.42 2.91 1.64 2.25.43 3.54 1.11 3.46 3.19-.05 1.82-1.67 3.29-4.17 3.29z"/>
    </g>
    <defs>
        <clipPath id="a">
            <path d="M0 0h85v24H0z"/>
        </clipPath>
    </defs>
</svg>